# xmcd
#
# Track frame offsets: 
#        150
#        20292
#        40032
#        58061
#        74452
#        94379
#        111175
#        125877
#        145140
#        162737
#        182746
#        199534
#        217461
#        238949
#        260742
#        278920
#        296392
#        313528
#        332098
#
# Disc length: 4660 seconds
#
# Revision: 8
# Processed by: cddbd v1.5.2PL0 Copyright (c) Steve Scherf et al.
# Submitted via: ExactAudioCopyFreeDBPlugin 1.0
#
DISCID=37123213
DTITLE=Diverse Interpreten - Kuschelrock 19  [CD1)
DYEAR=2005
DGENRE=Pop
TTITLE0=Anastacia - Heavy On My Heart (Album Version)
TTITLE1=Shakira - En Tus Pupilas (Album Version)
TTITLE2=Backstreet Boys - Incomplete (Album Version)
TTITLE3=Dido - Thank You
TTITLE4=Christina Aguilera - The Voice Within (Edit)
TTITLE5=Natasha Bedingfield - I Bruise Easily
TTITLE6=Phantom Planet - California (Tchad Blake Mix)
TTITLE7=The Corrs - What Can I Do
TTITLE8=Hoobastank - The Reason
TTITLE9=Staind - It’S Been Awhile (LP Version)
TTITLE10=Natalie Imbruglia - Shiver
TTITLE11=Reamonn - Alright (Single Edit)
TTITLE12=Marcella Detroit - I Believe
TTITLE13=Oasis - Don't Go Away
TTITLE14=Maroon 5 - She Will Be Loved (Radio Edit)
TTITLE15=Good Charlotte - We Believe (Album Version)
TTITLE16=Delta Goodrem Feat. Brian McFadden - Almost Here
TTITLE17=Il Divo - Regresa A Mi (Unbreak My Heart) (Radio Edit)
TTITLE18=Eros Ramazzotti - Per Me Per Sempre
EXTD=YEAR: 2005
EXTT0=
EXTT1=
EXTT2=
EXTT3=
EXTT4=
EXTT5=
EXTT6=
EXTT7=
EXTT8=
EXTT9=
EXTT10=
EXTT11=
EXTT12=
EXTT13=
EXTT14=
EXTT15=
EXTT16=
EXTT17=
EXTT18=
PLAYORDER=
